<!DOCTYPE svg PUBLIC "-//W3C//DTD SVG 1.1//EN" "http://www.w3.org/Graphics/SVG/1.1/DTD/svg11.dtd">
<!-- Uploaded to: SVG Repo, www.svgrepo.com, Transformed by: SVG Repo Mixer Tools -->
<svg fill="#66c4ff" height="800px" width="800px" version="1.1" id="Layer_1" xmlns="http://www.w3.org/2000/svg" xmlns:xlink="http://www.w3.org/1999/xlink" viewBox="0 0 512 512" xml:space="preserve" stroke="#66c4ff">
<g id="SVGRepo_bgCarrier" stroke-width="0"/>
<g id="SVGRepo_tracerCarrier" stroke-linecap="round" stroke-linejoin="round"/>
<g id="SVGRepo_iconCarrier"> <g> <g> <g> <path d="M220.07,152.702c-84.202,0-152.702,68.5-152.702,152.702s68.5,152.702,152.702,152.702s152.702-68.5,152.702-152.702 S304.272,152.702,220.07,152.702z"/> <path d="M489.544,0H345.825c-4.958,0-8.982,4.015-8.982,8.982v35.93c0,4.967,4.024,8.982,8.982,8.982h60.703l-76.557,76.549 c-32.912-20.714-70.746-31.636-109.9-31.636c-113.916,0-206.596,92.672-206.596,206.596S106.155,512,220.07,512 s206.596-92.672,206.596-206.596c0-52.574-19.483-102.077-55.054-140.387l73.018-73.018v60.703c0,4.967,4.024,8.982,8.982,8.982 h35.93c4.958,0,8.982-4.015,8.982-8.982V8.982C498.526,4.015,494.502,0,489.544,0z M390.737,305.404 c0,94.109-76.557,170.667-170.667,170.667S49.404,399.513,49.404,305.404s76.557-170.667,170.667-170.667 S390.737,211.294,390.737,305.404z"/> </g> </g> </g> </g>
</svg>